<svg width="262" height="262" viewBox="0 0 262 262" fill="none" xmlns="http://www.w3.org/2000/svg">
<path d="M106.507 148.612L107.288 150.677L109.435 151.202L107.711 152.586L107.876 154.789L106.027 153.58L103.981 154.415L104.561 152.282L103.135 150.595L105.342 150.49L106.507 148.612Z" fill="#48888C"/>
<path d="M156.479 101.858L157.261 103.922L159.408 104.451L157.684 105.834L157.846 108.035L155.999 106.825L153.954 107.66L154.533 105.527L153.107 103.84L155.315 103.735L156.479 101.858Z" fill="#A96F23"/>
<path d="M252.738 79.7938L254.423 81.2223L256.556 80.643L255.718 82.6878L256.929 84.5366L254.727 84.3719L253.341 86.0929L252.815 83.9487L250.75 83.162L252.631 82.0005L252.738 79.7938Z" fill="#A96F23"/>
<path d="M61.5122 20.7366L62.7366 23.9742L66.1 24.8006L63.4013 26.9675L63.6541 30.4181L60.7595 28.521L57.5523 29.8302L58.4642 26.4904L56.2285 23.8464L59.6857 23.6788L61.5122 20.7366Z" fill="#48888C"/>
<path d="M150.028 251.89L151.255 255.127L154.618 255.954L151.917 258.121L152.173 261.571L149.275 259.674L146.071 260.984L146.98 257.644L144.744 255L148.204 254.832L150.028 251.89Z" fill="#48888C"/>
<path d="M97.2708 117.378L95.5039 123.192C95.5039 123.192 104.168 123.036 107.946 128.693L112.06 124.189C112.06 124.186 107.148 117.631 97.2708 117.378Z" fill="#A96F23"/>
<path d="M129.15 167.535C129.15 167.535 122.272 168.183 123.559 174.737C124.846 181.289 121.639 183.362 118.656 180.892L119.969 186.748C119.969 186.748 132.135 186.887 129.198 177.671C126.261 168.455 132.723 172.051 132.723 172.051L129.15 167.535Z" fill="#A78782"/>
<path d="M73.5918 240.252C73.5918 240.252 73.6259 247.158 80.2703 246.46C86.9147 245.761 88.693 249.141 85.9659 251.89L91.9172 251.106C91.9172 251.106 93.1387 239.002 83.6934 241.106C74.248 243.211 78.4068 237.096 78.4068 237.096L73.5918 240.252Z" fill="#48888C"/>
<path d="M261.527 140.374C261.527 140.374 263.425 133.734 256.852 132.547C250.278 131.363 249.514 127.62 252.9 125.742L246.969 124.833C246.969 124.833 242.412 136.114 252.068 136.73C261.723 137.349 256.022 142.058 256.022 142.058L261.527 140.374Z" fill="#48888C"/>
<path d="M58.3692 155.541C58.3692 155.541 60.2668 148.901 53.6934 147.714C47.12 146.529 46.3558 142.786 49.7419 140.909L43.8105 140C43.8105 140 39.254 151.281 48.9096 151.897C58.5652 152.516 52.8639 157.225 52.8639 157.225L58.3692 155.541Z" fill="#48888C"/>
<path d="M48.9598 76.6047L51.5989 78.8455L54.9424 77.9424L53.6271 81.1459L55.519 84.0455L52.0647 83.7814L49.8916 86.4765L49.0735 83.114L45.8379 81.8786L48.7865 80.0638L48.9598 76.6047Z" fill="#DF7DEF"/>
<path d="M141.813 118.656L142.597 120.721L144.745 121.246L143.021 122.63L143.183 124.833L141.333 123.624L139.288 124.458L139.87 122.326L138.441 120.639L140.651 120.534L141.813 118.656Z" fill="#A96F23"/>
<path d="M214.248 155.234L215.475 158.472L218.838 159.295L216.137 161.462L216.392 164.916L213.495 163.019L210.291 164.328L211.202 160.988L208.967 158.344L212.424 158.176L214.248 155.234Z" fill="#48888C"/>
<path d="M155.835 160.336C155.835 160.336 156.511 153.463 149.833 153.475C143.154 153.486 141.731 149.942 144.725 147.488L138.725 147.655C138.725 147.655 136.265 159.569 145.875 158.447C155.486 157.326 150.722 162.98 150.722 162.98L155.835 160.336Z" fill="#A78782"/>
<path d="M213.902 96.0025C213.902 96.0025 218.129 99.6547 216.104 103.531C214.076 107.408 217.521 111.799 218.84 111.799L224.101 110.614C224.101 110.614 221.336 106.621 222.606 103.466C223.876 100.314 219.001 94.6138 219.001 94.6138L213.902 96.0025Z" fill="#A96F23"/>
<path d="M192.604 144.739L195.243 146.98L198.584 146.076L197.269 149.277L199.161 152.177L195.709 151.915L193.533 154.611L192.718 151.245L189.482 150.013L192.428 148.195L192.604 144.739Z" fill="#DF7DEF"/>
<path d="M11.0566 186.564L11.8406 188.629L13.9882 189.154L12.2639 190.537L12.4258 192.741L10.5765 191.531L8.53119 192.366L9.11354 190.233L7.6875 188.546L9.89473 188.441L11.0566 186.564Z" fill="#A96F23"/>
<path d="M68.9598 198.968L71.5989 201.212L74.9424 200.309L73.6271 203.509L75.519 206.409L72.0647 206.148L69.8916 208.843L69.0735 205.477L65.8379 204.245L68.7866 202.427L68.9598 198.968Z" fill="#DF7DEF"/>
<path d="M156.604 -0.000976562L157.831 3.2366L161.195 4.06304L158.493 6.22995L158.749 9.68053L155.851 7.78342L152.647 9.09265L153.556 5.75283L151.32 3.10881L154.78 2.94125L156.604 -0.000976562Z" fill="#A96F23"/>
<path d="M96.7402 4.94063C96.7402 4.94063 100.967 8.59285 98.9418 12.4694C96.9164 16.346 100.359 20.7366 101.677 20.7366L106.938 19.5523C106.938 19.5523 104.174 15.5593 105.444 12.4041C106.714 9.25173 101.839 3.55188 101.839 3.55188L96.7402 4.94063Z" fill="#A96F23"/>
<path d="M132.559 40.5342L133.341 42.6017L135.488 43.1271L133.764 44.5102L133.929 46.714L132.079 45.5013L130.034 46.3391L130.614 44.2063L129.188 42.5193L131.395 42.4142L132.559 40.5342Z" fill="#A96F23"/>
<path d="M180.402 45.0099C180.402 45.0099 184.629 48.6622 182.604 52.5387C180.576 56.4153 184.021 60.8059 185.34 60.8059L190.601 59.6216C190.601 59.6216 187.836 55.6286 189.106 52.4734C190.373 49.3239 185.501 43.624 185.501 43.624L180.402 45.0099Z" fill="#A96F23"/>
<path d="M218.882 30.4633L217.115 36.2767C217.115 36.2767 225.779 36.1205 229.558 41.7778L233.671 37.2735C233.671 37.2735 228.759 30.7189 218.882 30.4633Z" fill="#DF7DEF"/>
<path d="M8.83717 118.116C8.83717 118.116 9.00193 123.699 4.77211 124.827C0.54513 125.954 -0.363898 131.458 0.528086 132.429L4.95676 135.505C4.95676 135.505 6.03339 130.768 9.21498 129.572C12.3966 128.377 13.3056 120.933 13.3056 120.933L8.83717 118.116Z" fill="#A78782"/>
<path d="M225.611 215.63L226.395 217.695L228.543 218.223L226.819 219.606L226.98 221.81L225.134 220.597L223.086 221.432L223.668 219.302L222.242 217.613L224.449 217.508L225.611 215.63Z" fill="#48888C"/>
<path d="M232.759 175.644L230.992 181.457C230.992 181.457 239.656 181.301 243.435 186.958L247.548 182.454C247.545 182.451 242.636 175.896 232.759 175.644Z" fill="#A96F23"/>
<path d="M9.08138 70.2262L7.31445 76.0396C7.31445 76.0396 15.9786 75.8834 19.7568 81.5407L23.8701 77.0365C23.8701 77.0365 18.9585 70.4818 9.08138 70.2262Z" fill="#A96F23"/>
<path d="M167.652 204.001L168.879 207.238L172.243 208.065L169.544 210.232L169.797 213.685L166.902 211.785L163.695 213.094L164.607 209.754L162.371 207.11L165.828 206.946L167.652 204.001Z" fill="#A96F23"/>
<path d="M115.492 210.232C115.492 210.232 119.719 213.884 117.694 217.76C115.665 221.637 119.111 226.028 120.429 226.028L125.69 224.843C125.69 224.843 122.926 220.85 124.196 217.695C125.466 214.543 120.591 208.843 120.591 208.843L115.492 210.232Z" fill="#48888C"/>
<path d="M159.442 168.578L160.226 170.642L162.371 171.168L160.65 172.551L160.811 174.755L158.962 173.545L156.917 174.38L157.499 172.247L156.07 170.56L158.278 170.455L159.442 168.578Z" fill="#A78782"/>
<path d="M200 228.697C200 228.697 204.227 232.349 202.202 236.226C200.173 240.102 203.619 244.493 204.937 244.493L210.198 243.309C210.198 243.309 207.434 239.316 208.704 236.161C209.974 233.008 205.099 227.308 205.099 227.308L200 228.697Z" fill="#A96F23"/>
<path d="M32.5371 217.019C32.5371 217.019 36.7641 220.671 34.7387 224.548C32.7104 228.424 36.1562 232.815 37.4743 232.815L42.7353 231.631C42.7353 231.631 39.9713 227.638 41.2411 224.483C42.5108 221.33 37.6362 215.63 37.6362 215.63L32.5371 217.019Z" fill="#A96F23"/>
<g clip-path="url(#clip0_6258_773)">
<path d="M196.498 61.2842H69.498V188.284H196.498V61.2842Z" fill="white"/>
<path d="M144.259 123.679C133.578 142.931 127.853 159.056 127.853 159.056C115.496 136.963 93.9492 128.653 93.9492 128.653C112.02 127.987 125.131 137.584 125.131 137.584C137.345 115.127 156.909 92.7977 170.974 85.1428C170.974 85.1428 154.487 105.242 144.259 123.679Z" fill="#3E8258"/>
<path d="M182.745 113.841C181.47 108.67 179.388 103.696 176.606 99.1433L173.731 100.933C176.389 105.153 178.403 109.783 179.667 114.618C180.916 119.452 181.417 124.486 181.155 129.486C180.634 139.457 176.951 149.427 170.679 157.221C169.11 159.186 167.41 161.051 165.564 162.765C163.709 164.469 161.732 166.039 159.65 167.461L158.065 168.493C145.597 176.61 130.05 177.488 116.112 173.213C115.505 173.026 114.918 172.786 114.326 172.559C110.172 170.954 106.268 168.782 102.681 166.145C100.639 164.629 98.7264 162.942 96.9318 161.138C91.5178 155.695 87.5827 148.961 85.0813 141.732C84.3015 139.301 83.6838 136.817 83.2656 134.294C82.8738 131.768 82.653 129.216 82.616 126.656C82.5741 121.537 83.313 116.408 84.8264 111.508C86.336 106.607 88.6155 101.939 91.5523 97.7218C94.4873 93.5029 98.0772 89.7339 102.158 86.5911C103.721 85.3859 105.358 84.2738 107.054 83.2605C113.908 79.409 119.834 77.8109 121.629 77.9663C121.629 77.9663 111.936 80.8007 105.926 86.6664C105.926 86.6664 108.948 91.3415 114.948 90.2155C122.027 88.8883 122.789 81.5816 132.237 77.5514C132.237 77.5514 125.394 70.7887 116.362 72.2323C111.001 73.0895 104.82 77.9303 104.598 83.7427C104.585 84.0416 104.593 84.3303 104.618 84.6101C103.737 85.1873 102.873 85.7908 102.03 86.4226C97.8894 89.5222 94.2244 93.2639 91.2067 97.4775C88.1873 101.689 85.8177 106.374 84.2211 111.317C82.6206 116.258 81.7979 121.454 81.7695 126.657C81.7714 129.26 81.9602 131.861 82.3247 134.441C82.7157 137.017 83.3107 139.56 84.0735 142.054C86.31 149.364 90.5404 156.55 95.9461 162.097C97.7561 163.968 99.6907 165.722 101.761 167.307C105.877 170.457 110.598 173.211 115.552 174.811C130.84 179.748 147.319 178.003 160.941 169.398C163.142 167.94 165.237 166.323 167.207 164.561C169.169 162.789 170.982 160.856 172.66 158.811C174.346 156.772 175.839 154.576 177.178 152.292C177.867 151.16 178.458 149.973 179.061 148.794C181.999 143.052 183.575 136.168 184.113 129.673C184.464 124.375 184.007 119.016 182.745 113.841Z" fill="#3E8258"/>
</g>
<defs>
<clipPath id="clip0_6258_773">
<rect width="127" height="127" fill="white" transform="translate(69.498 61.2842)"/>
</clipPath>
</defs>
</svg>
