<svg width="690" height="12" viewBox="0 0 690 12" fill="none" xmlns="http://www.w3.org/2000/svg">
<path d="M686 4H0V8H686V4Z" fill="#2D2E33" fill-opacity="0.6"/>
<path d="M330 0H326V12H330V0Z" fill="#2D2E33" fill-opacity="0.6"/>
<path d="M310 0H306V12H310V0Z" fill="#2D2E33" fill-opacity="0.6"/>
<path d="M290 0H286V12H290V0Z" fill="#2D2E33" fill-opacity="0.6"/>
<path d="M270 0H266V12H270V0Z" fill="#2D2E33" fill-opacity="0.6"/>
<path d="M250 0H246V12H250V0Z" fill="#2D2E33" fill-opacity="0.6"/>
<path d="M230 0H226V12H230V0Z" fill="#2D2E33" fill-opacity="0.6"/>
<path d="M210 0H206V12H210V0Z" fill="#2D2E33" fill-opacity="0.6"/>
<path d="M190 0H186V12H190V0Z" fill="#2D2E33" fill-opacity="0.6"/>
<path d="M170 0H166V12H170V0Z" fill="#2D2E33" fill-opacity="0.6"/>
<path d="M150 0H146V12H150V0Z" fill="#2D2E33" fill-opacity="0.6"/>
<path d="M130 0H126V12H130V0Z" fill="#2D2E33" fill-opacity="0.6"/>
<path d="M110 0H106V12H110V0Z" fill="#2D2E33" fill-opacity="0.6"/>
<path d="M90 0H86V12H90V0Z" fill="#2D2E33" fill-opacity="0.6"/>
<path d="M70 0H66V12H70V0Z" fill="#2D2E33" fill-opacity="0.6"/>
<path d="M50 0H46V12H50V0Z" fill="#2D2E33" fill-opacity="0.6"/>
<path d="M30 0H26V12H30V0Z" fill="#2D2E33" fill-opacity="0.6"/>
<path d="M10 0H6V12H10V0Z" fill="#2D2E33" fill-opacity="0.6"/>
<path d="M350 0H346V12H350V0Z" fill="#2D2E33" fill-opacity="0.6"/>
<path d="M370 0H366V12H370V0Z" fill="#2D2E33" fill-opacity="0.6"/>
<path d="M390 0H386V12H390V0Z" fill="#2D2E33" fill-opacity="0.6"/>
<path d="M410 0H406V12H410V0Z" fill="#2D2E33" fill-opacity="0.6"/>
<path d="M430 0H426V12H430V0Z" fill="#2D2E33" fill-opacity="0.6"/>
<path d="M450 0H446V12H450V0Z" fill="#2D2E33" fill-opacity="0.6"/>
<path d="M470 0H466V12H470V0Z" fill="#2D2E33" fill-opacity="0.6"/>
<path d="M490 0H486V12H490V0Z" fill="#2D2E33" fill-opacity="0.6"/>
<path d="M510 0H506V12H510V0Z" fill="#2D2E33" fill-opacity="0.6"/>
<path d="M530 0H526V12H530V0Z" fill="#2D2E33" fill-opacity="0.6"/>
<path d="M550 0H546V12H550V0Z" fill="#2D2E33" fill-opacity="0.6"/>
<path d="M570 0H566V12H570V0Z" fill="#2D2E33" fill-opacity="0.6"/>
<path d="M590 0H586V12H590V0Z" fill="#2D2E33" fill-opacity="0.6"/>
<path d="M610 0H606V12H610V0Z" fill="#2D2E33" fill-opacity="0.6"/>
<path d="M630 0H626V12H630V0Z" fill="#2D2E33" fill-opacity="0.6"/>
<path d="M650 0H646V12H650V0Z" fill="#2D2E33" fill-opacity="0.6"/>
<path d="M670 0H666V12H670V0Z" fill="#2D2E33" fill-opacity="0.6"/>
<path d="M690 0H686V12H690V0Z" fill="#2D2E33" fill-opacity="0.6"/>
</svg>
