<svg width="26" height="30" viewBox="0 0 26 30" fill="none" xmlns="http://www.w3.org/2000/svg">
<path d="M25 28.5C25 26.4067 25 25.36 24.7416 24.5083C24.1599 22.5907 22.6593 21.0901 20.7417 20.5084C19.89 20.25 18.8433 20.25 16.75 20.25H9.25001C7.15666 20.25 6.10998 20.25 5.25829 20.5084C3.34068 21.0901 1.84006 22.5907 1.25836 24.5083C1 25.36 1 26.4067 1 28.5M19.75 8.25C19.75 11.9779 16.7279 15 13 15C9.27208 15 6.25 11.9779 6.25 8.25C6.25 4.52208 9.27208 1.5 13 1.5C16.7279 1.5 19.75 4.52208 19.75 8.25Z"  stroke="#1E1E1E" stroke-width="1.5" stroke-linecap="round" stroke-linejoin="round"/>
</svg>
