<svg width="36" height="30" viewBox="0 0 36 30" fill="none" xmlns="http://www.w3.org/2000/svg">
<path d="M25.5 28.5V25.5C25.5 23.9087 24.8679 22.3826 23.7426 21.2574C22.6174 20.1321 21.0913 19.5 19.5 19.5H7.5C5.9087 19.5 4.38258 20.1321 3.25736 21.2574C2.13214 22.3826 1.5 23.9087 1.5 25.5V28.5M34.5 28.5V25.5C34.499 24.1706 34.0565 22.8792 33.242 21.8285C32.4276 20.7778 31.2872 20.0274 30 19.695M24 1.695C25.2906 2.02545 26.4346 2.77605 27.2515 3.82847C28.0684 4.88088 28.5118 6.17524 28.5118 7.5075C28.5118 8.83976 28.0684 10.1341 27.2515 11.1865C26.4346 12.2389 25.2906 12.9895 24 13.32M19.5 7.5C19.5 10.8137 16.8137 13.5 13.5 13.5C10.1863 13.5 7.5 10.8137 7.5 7.5C7.5 4.18629 10.1863 1.5 13.5 1.5C16.8137 1.5 19.5 4.18629 19.5 7.5Z"  stroke-width="1.5" stroke="#FFFFFF" stroke-linecap="round" stroke-linejoin="round"/>
</svg>
