<svg width="38" height="37" viewBox="0 0 38 37" fill="none" xmlns="http://www.w3.org/2000/svg">
<path d="M13.1157 21.2917C13.7905 23.9136 16.1705 25.8508 19.003 25.8508C21.8354 25.8508 24.2154 23.9136 24.8902 21.2917M17.5101 4.21646L7.2031 12.2331C6.51412 12.7689 6.16963 13.0369 5.92145 13.3724C5.7016 13.6696 5.53784 14.0045 5.43818 14.3605C5.32568 14.7624 5.32568 15.1988 5.32568 16.0717V27.0666C5.32568 28.7688 5.32568 29.6199 5.65696 30.2701C5.94835 30.842 6.41332 31.307 6.98522 31.5984C7.63538 31.9296 8.48649 31.9296 10.1887 31.9296H27.8172C29.5194 31.9296 30.3705 31.9296 31.0207 31.5984C31.5926 31.307 32.0575 30.842 32.3489 30.2701C32.6802 29.6199 32.6802 28.7688 32.6802 27.0666V16.0717C32.6802 15.1988 32.6802 14.7624 32.5677 14.3605C32.4681 14.0045 32.3043 13.6696 32.0845 13.3724C31.8363 13.0369 31.4918 12.7689 30.8028 12.2331L20.4958 4.21646C19.9619 3.8012 19.6949 3.59357 19.4001 3.51375C19.14 3.44333 18.8659 3.44333 18.6058 3.51375C18.311 3.59357 18.0441 3.8012 17.5101 4.21646Z" stroke="#2D2E33" stroke-width="2" stroke-linecap="round" stroke-linejoin="round"/>
</svg>
