<svg width="18" height="16" viewBox="0 0 18 16" fill="none" xmlns="http://www.w3.org/2000/svg">
<path d="M8.5 7.94807C8.07376 7.94807 7.66498 7.7838 7.36358 7.49141C7.06218 7.19902 6.89286 6.80246 6.89286 6.38895C6.89286 5.97545 7.06218 5.57888 7.36358 5.28649C7.66498 4.9941 8.07376 4.82984 8.5 4.82984C8.92624 4.82984 9.33502 4.9941 9.63642 5.28649C9.93782 5.57888 10.1071 5.97545 10.1071 6.38895C10.1071 6.5937 10.0656 6.79644 9.98481 6.9856C9.90404 7.17476 9.78566 7.34664 9.63642 7.49141C9.48718 7.63619 9.31001 7.75103 9.11503 7.82939C8.92004 7.90774 8.71105 7.94807 8.5 7.94807ZM8.5 2.02344C7.30653 2.02344 6.16193 2.48337 5.31802 3.30207C4.47411 4.12076 4 5.23115 4 6.38895C4 9.66309 8.5 14.4963 8.5 14.4963C8.5 14.4963 13 9.66309 13 6.38895C13 5.23115 12.5259 4.12076 11.682 3.30207C10.8381 2.48337 9.69347 2.02344 8.5 2.02344Z" fill="#3E8258"/>
</svg>
