<svg width="30" height="32" viewBox="0 0 30 32" fill="none" xmlns="http://www.w3.org/2000/svg">
<path d="M1.905 8.44083L15 16.0158L28.095 8.44083M15 31.1208V16.0008M28.5 22.0008V10.0008C28.4995 9.47474 28.3606 8.95804 28.0973 8.50257C27.834 8.0471 27.4556 7.66887 27 7.40583L16.5 1.40583C16.0439 1.14252 15.5266 1.00391 15 1.00391C14.4734 1.00391 13.9561 1.14252 13.5 1.40583L3 7.40583C2.54439 7.66887 2.16597 8.0471 1.90269 8.50257C1.63941 8.95804 1.50054 9.47474 1.5 10.0008V22.0008C1.50054 22.5269 1.63941 23.0436 1.90269 23.4991C2.16597 23.9546 2.54439 24.3328 3 24.5958L13.5 30.5958C13.9561 30.8591 14.4734 30.9978 15 30.9978C15.5266 30.9978 16.0439 30.8591 16.5 30.5958L27 24.5958C27.4556 24.3328 27.834 23.9546 28.0973 23.4991C28.3606 23.0436 28.4995 22.5269 28.5 22.0008Z" stroke="#FFFFFF" stroke-width="1.5" stroke-linecap="round" stroke-linejoin="round"/>
</svg>
