<svg width="32" height="35" viewBox="0 0 32 35" fill="none" xmlns="http://www.w3.org/2000/svg">
<path d="M4.97466 9.00363V1H27.0796V14.8027M17.3765 5.60452H23.4253M17.3765 9.50317H23.4253M15.9376 14.0154L12.6796 9.79097C12.4872 9.54307 12.24 9.343 11.9574 9.20643C11.6748 9.06985 11.3645 9.00045 11.0507 9.00363H3.0362C2.49617 9.00363 1.97826 9.21815 1.59639 9.60001C1.21453 9.98187 1 10.4998 1 11.0398V32.1186C1 32.6586 1.21453 33.1765 1.59639 33.5584C1.97826 33.9402 2.49617 34.1548 3.0362 34.1548H28.9638C29.5038 34.1548 30.0217 33.9402 30.4036 33.5584C30.7855 33.1765 31 32.6586 31 32.1186V16.8389C31 16.2989 30.7855 15.781 30.4036 15.3991C30.0217 15.0172 29.5038 14.8027 28.9638 14.8027H17.5611C17.2484 14.8038 16.9395 14.7335 16.6582 14.597C16.3768 14.4606 16.1303 14.2616 15.9376 14.0154Z" stroke="#FFFFFF" stroke-width="1.5" stroke-linecap="round" stroke-linejoin="round"/>
</svg>
