<svg width="30" height="31" viewBox="0 0 30 31" fill="none" xmlns="http://www.w3.org/2000/svg">
  <path d="M9.1147 19.2917C9.78951 21.9136 12.1695 23.8508 15.002 23.8508C17.8344 23.8508 20.2144 21.9136 20.8893 19.2917M13.5092 2.21646L3.20212 10.2331C2.51314 10.7689 2.16865 11.0369 1.92047 11.3724C1.70063 11.6696 1.53686 12.0045 1.43721 12.3605C1.32471 12.7624 1.32471 13.1988 1.32471 14.0717V25.0666C1.32471 26.7688 1.32471 27.6199 1.65598 28.2701C1.94738 28.842 2.41235 29.307 2.98424 29.5984C3.63441 29.9296 4.48552 29.9296 6.18774 29.9296H23.8162C25.5184 29.9296 26.3695 29.9296 27.0197 29.5984C27.5916 29.307 28.0566 28.842 28.348 28.2701C28.6792 27.6199 28.6792 26.7688 28.6792 25.0666V14.0717C28.6792 13.1988 28.6792 12.7624 28.5667 12.3605C28.4671 12.0045 28.3033 11.6696 28.0835 11.3724C27.8353 11.0369 27.4908 10.7689 26.8018 10.2331L16.4948 2.21646C15.9609 1.8012 15.6939 1.59357 15.3991 1.51375C15.139 1.44333 14.8649 1.44333 14.6048 1.51375C14.31 1.59357 14.0431 1.8012 13.5092 2.21646Z" 
    stroke="#1E1E1E" stroke-width="2" stroke-linecap="round" stroke-linejoin="round" fill="none"/>
</svg>
