<svg width="24" height="24" viewBox="0 0 24 24" fill="none" xmlns="http://www.w3.org/2000/svg">
<g clip-path="url(#clip0_2733_12894)">
<mask id="mask0_2733_12894" style="mask-type:luminance" maskUnits="userSpaceOnUse" x="0" y="0" width="24" height="24">
<path d="M24 0H0V24H24V0Z" fill="white"/>
</mask>
<g mask="url(#mask0_2733_12894)">
<path d="M1 22H23" stroke="#2D2E33" stroke-width="1.5" stroke-miterlimit="10" stroke-linecap="round" stroke-linejoin="round"/>
<path d="M19.7812 22.0108V17.5508" stroke="#2D2E33" stroke-width="1.5" stroke-miterlimit="10" stroke-linecap="round" stroke-linejoin="round"/>
<path d="M19.8016 10.8906C18.5816 10.8906 17.6016 11.8706 17.6016 13.0906V15.3606C17.6016 16.5806 18.5816 17.5606 19.8016 17.5606C21.0216 17.5606 22.0016 16.5806 22.0016 15.3606V13.0906C22.0016 11.8706 21.0216 10.8906 19.8016 10.8906Z" stroke="#2D2E33" stroke-width="1.5" stroke-miterlimit="10" stroke-linecap="round" stroke-linejoin="round"/>
<path d="M2.10156 21.9998V6.02979C2.10156 4.01979 3.10161 3.00977 5.09161 3.00977H11.3216C13.3116 3.00977 14.3016 4.01979 14.3016 6.02979V21.9998" stroke="#2D2E33" stroke-width="1.5" stroke-miterlimit="10" stroke-linecap="round" stroke-linejoin="round"/>
<path d="M5.80078 8.25H10.7508" stroke="#2D2E33" stroke-width="1.5" stroke-miterlimit="10" stroke-linecap="round" stroke-linejoin="round"/>
<path d="M5.80078 12H10.7508" stroke="#2D2E33" stroke-width="1.5" stroke-miterlimit="10" stroke-linecap="round" stroke-linejoin="round"/>
<path d="M8.25 22V18.25" stroke="#2D2E33" stroke-width="1.5" stroke-miterlimit="10" stroke-linecap="round" stroke-linejoin="round"/>
</g>
</g>
<defs>
<clipPath id="clip0_2733_12894">
<rect width="24" height="24" fill="white"/>
</clipPath>
</defs>
</svg>
