<svg width="24" height="24" viewBox="0 0 24 24" fill="none" xmlns="http://www.w3.org/2000/svg">
<g clip-path="url(#clip0_2725_18552)">
<mask id="mask0_2725_18552" style="mask-type:luminance" maskUnits="userSpaceOnUse" x="0" y="0" width="24" height="24">
<path d="M24 0H0V24H24V0Z" fill="white"/>
</mask>
<g mask="url(#mask0_2725_18552)">
<path d="M18.63 7.15014C18.67 7.76014 18.62 8.45014 18.5 9.22014L17.77 13.9101C17.15 17.8201 15.34 19.1401 11.43 18.5301L6.73999 17.7901C5.38999 17.5801 4.34999 17.2201 3.58999 16.6801C2.13999 15.6701 1.71999 14.0101 2.11999 11.4501L2.85999 6.76014C3.47999 2.85014 5.28999 1.53014 9.19999 2.14014L13.89 2.88014C17.03 3.37014 18.5 4.65014 18.63 7.15014Z" stroke="#2D2E33" stroke-width="1.5" stroke-linecap="round" stroke-linejoin="round"/>
<path d="M20.4999 13.4704L18.9999 17.9804C17.7499 21.7404 15.7499 22.7404 11.9899 21.4904L7.47984 19.9904C5.20984 19.2404 3.94984 18.2004 3.58984 16.6804C4.34984 17.2204 5.38984 17.5804 6.73984 17.7904L11.4299 18.5304C15.3399 19.1404 17.1499 17.8204 17.7699 13.9104L18.4999 9.22039C18.6199 8.45039 18.6699 7.76039 18.6299 7.15039C21.0199 8.42039 21.5399 10.3404 20.4999 13.4704Z" stroke="#2D2E33" stroke-width="1.5" stroke-linecap="round" stroke-linejoin="round"/>
<path d="M8.24 8.98C9.20098 8.98 9.98 8.20098 9.98 7.24C9.98 6.27902 9.20098 5.5 8.24 5.5C7.27902 5.5 6.5 6.27902 6.5 7.24C6.5 8.20098 7.27902 8.98 8.24 8.98Z" stroke="#2D2E33" stroke-width="1.5" stroke-linecap="round" stroke-linejoin="round"/>
</g>
</g>
<defs>
<clipPath id="clip0_2725_18552">
<rect width="24" height="24" fill="white"/>
</clipPath>
</defs>
</svg>
