<svg width="24" height="24" viewBox="0 0 24 24" fill="none" xmlns="http://www.w3.org/2000/svg">
<g clip-path="url(#clip0_2725_18560)">
<mask id="mask0_2725_18560" style="mask-type:luminance" maskUnits="userSpaceOnUse" x="0" y="0" width="24" height="24">
<path d="M24 0H0V24H24V0Z" fill="white"/>
</mask>
<g mask="url(#mask0_2725_18560)">
<path d="M9.15859 10.87C9.05859 10.86 8.93859 10.86 8.82859 10.87C6.44859 10.79 4.55859 8.84 4.55859 6.44C4.55859 3.99 6.53859 2 8.99859 2C11.4486 2 13.4386 3.99 13.4386 6.44C13.4286 8.84 11.5386 10.79 9.15859 10.87Z" stroke="#2D2E33" stroke-width="1.5" stroke-linecap="round" stroke-linejoin="round"/>
<path d="M16.4073 4C18.3473 4 19.9073 5.57 19.9073 7.5C19.9073 9.39 18.4073 10.93 16.5373 11C16.4573 10.99 16.3673 10.99 16.2773 11" stroke="#2D2E33" stroke-width="1.5" stroke-linecap="round" stroke-linejoin="round"/>
<path d="M4.15875 14.56C1.73875 16.18 1.73875 18.82 4.15875 20.43C6.90875 22.27 11.4187 22.27 14.1687 20.43C16.5887 18.81 16.5887 16.17 14.1687 14.56C11.4287 12.73 6.91875 12.73 4.15875 14.56Z" stroke="#2D2E33" stroke-width="1.5" stroke-linecap="round" stroke-linejoin="round"/>
<path d="M18.3398 20C19.0598 19.85 19.7398 19.56 20.2998 19.13C21.8598 17.96 21.8598 16.03 20.2998 14.86C19.7498 14.44 19.0798 14.16 18.3698 14" stroke="#2D2E33" stroke-width="1.5" stroke-linecap="round" stroke-linejoin="round"/>
</g>
</g>
<defs>
<clipPath id="clip0_2725_18560">
<rect width="24" height="24" fill="white"/>
</clipPath>
</defs>
</svg>
