<svg width="24" height="24" viewBox="0 0 24 24" fill="none" xmlns="http://www.w3.org/2000/svg">
<g clip-path="url(#clip0_2725_18607)">
<mask id="mask0_2725_18607" style="mask-type:luminance" maskUnits="userSpaceOnUse" x="0" y="0" width="24" height="24">
<path d="M24 0H0V24H24V0Z" fill="white"/>
</mask>
<g mask="url(#mask0_2725_18607)">
<path d="M12.0028 13.4295C13.7259 13.4295 15.1228 12.0326 15.1228 10.3095C15.1228 8.58633 13.7259 7.18945 12.0028 7.18945C10.2797 7.18945 8.88281 8.58633 8.88281 10.3095C8.88281 12.0326 10.2797 13.4295 12.0028 13.4295Z" stroke="#2D2E33" stroke-width="1.5"/>
<path d="M3.62166 8.49C5.59166 -0.169998 18.4217 -0.159997 20.3817 8.5C21.5317 13.58 18.3717 17.88 15.6017 20.54C13.5917 22.48 10.4117 22.48 8.39166 20.54C5.63166 17.88 2.47166 13.57 3.62166 8.49Z" stroke="#2D2E33" stroke-width="1.5"/>
</g>
</g>
<defs>
<clipPath id="clip0_2725_18607">
<rect width="24" height="24" fill="white"/>
</clipPath>
</defs>
</svg>
