<svg width="24" height="24" viewBox="0 0 24 24" fill="none" xmlns="http://www.w3.org/2000/svg">
<g clip-path="url(#clip0_2725_18590)">
<mask id="mask0_2725_18590" style="mask-type:luminance" maskUnits="userSpaceOnUse" x="0" y="0" width="24" height="24">
<path d="M24 0H0V24H24V0Z" fill="white"/>
</mask>
<g mask="url(#mask0_2725_18590)">
<path d="M3.17188 7.43945L12.0018 12.5495L20.7718 7.46945" stroke="#2D2E33" stroke-width="1.5" stroke-linecap="round" stroke-linejoin="round"/>
<path d="M12 21.6091V12.5391" stroke="#2D2E33" stroke-width="1.5" stroke-linecap="round" stroke-linejoin="round"/>
<path d="M9.93062 2.4793L4.59063 5.4393C3.38063 6.1093 2.39062 7.7893 2.39062 9.1693V14.8193C2.39062 16.1993 3.38063 17.8793 4.59063 18.5493L9.93062 21.5193C11.0706 22.1493 12.9406 22.1493 14.0806 21.5193L19.4206 18.5493C20.6306 17.8793 21.6206 16.1993 21.6206 14.8193V9.1693C21.6206 7.7893 20.6306 6.1093 19.4206 5.4393L14.0806 2.4693C12.9306 1.8393 11.0706 1.8393 9.93062 2.4793Z" stroke="#2D2E33" stroke-width="1.5" stroke-linecap="round" stroke-linejoin="round"/>
</g>
</g>
<defs>
<clipPath id="clip0_2725_18590">
<rect width="24" height="24" fill="white"/>
</clipPath>
</defs>
</svg>
