<svg width="24" height="24" viewBox="0 0 24 24" fill="none" xmlns="http://www.w3.org/2000/svg">
<g clip-path="url(#clip0_2725_18543)">
<mask id="mask0_2725_18543" style="mask-type:luminance" maskUnits="userSpaceOnUse" x="0" y="0" width="24" height="24">
<path d="M24 0H0V24H24V0Z" fill="white"/>
</mask>
<g mask="url(#mask0_2725_18543)">
<path d="M21.6602 10.4405L20.6802 14.6205C19.8402 18.2305 18.1802 19.6905 15.0602 19.3905C14.5602 19.3505 14.0202 19.2605 13.4402 19.1205L11.7602 18.7205C7.59018 17.7305 6.30018 15.6705 7.28018 11.4905L8.26018 7.3005C8.46018 6.4505 8.70018 5.7105 9.00018 5.1005C10.1702 2.6805 12.1602 2.0305 15.5002 2.8205L17.1702 3.2105C21.3602 4.1905 22.6402 6.2605 21.6602 10.4405Z" stroke="#2D2E33" stroke-width="1.5" stroke-linecap="round" stroke-linejoin="round"/>
<path d="M15.0584 19.3896C14.4384 19.8096 13.6584 20.1596 12.7084 20.4696L11.1284 20.9896C7.1584 22.2696 5.06839 21.1996 3.77839 17.2296L2.49839 13.2796C1.21839 9.30961 2.27839 7.20961 6.24839 5.92961L7.82839 5.40961C8.23839 5.27961 8.62839 5.16961 8.99839 5.09961C8.69839 5.70961 8.45839 6.44961 8.25839 7.29961L7.27839 11.4896C6.29839 15.6696 7.5884 17.7296 11.7584 18.7196L13.4384 19.1196C14.0184 19.2596 14.5584 19.3496 15.0584 19.3896Z" stroke="#2D2E33" stroke-width="1.5" stroke-linecap="round" stroke-linejoin="round"/>
<path d="M12.6367 8.5293L17.4867 9.7593" stroke="#2D2E33" stroke-width="1.5" stroke-linecap="round" stroke-linejoin="round"/>
<path d="M11.6602 12.4004L14.5602 13.1404" stroke="#2D2E33" stroke-width="1.5" stroke-linecap="round" stroke-linejoin="round"/>
</g>
</g>
<defs>
<clipPath id="clip0_2725_18543">
<rect width="24" height="24" fill="white"/>
</clipPath>
</defs>
</svg>
