<svg width="24" height="24" viewBox="0 0 24 24" fill="none" xmlns="http://www.w3.org/2000/svg">
<g clip-path="url(#clip0_2725_18569)">
<mask id="mask0_2725_18569" style="mask-type:luminance" maskUnits="userSpaceOnUse" x="0" y="0" width="24" height="24">
<path d="M24 0H0V24H24V0Z" fill="white"/>
</mask>
<g mask="url(#mask0_2725_18569)">
<path d="M7.41094 19.6101L6.42094 19.8401C5.71094 20.0001 5.16094 20.5601 4.99094 21.2701L4.76094 22.2601C4.74094 22.3601 4.58094 22.3601 4.56094 22.2601L4.33094 21.2701C4.17094 20.5601 3.61094 20.0101 2.90094 19.8401L1.91094 19.6101C1.81094 19.5901 1.81094 19.4301 1.91094 19.4101L2.90094 19.1801C3.61094 19.0201 4.16094 18.4601 4.33094 17.7501L4.56094 16.7601C4.58094 16.6601 4.74094 16.6601 4.76094 16.7601L4.99094 17.7501C5.15094 18.4601 5.71094 19.0101 6.42094 19.1801L7.41094 19.4101C7.51094 19.4301 7.51094 19.5901 7.41094 19.6101Z" stroke="#2D2E33" stroke-width="1.5" stroke-miterlimit="10"/>
<path d="M9.1625 10.87C9.0625 10.86 8.9425 10.86 8.8325 10.87C6.4525 10.79 4.5625 8.84 4.5625 6.44C4.5625 4.04 6.5425 2 9.0025 2C11.4625 2 13.4425 3.99 13.4425 6.44C13.4325 8.84 11.5425 10.79 9.1625 10.87Z" stroke="#2D2E33" stroke-width="1.5" stroke-linecap="round" stroke-linejoin="round"/>
<path d="M16.4112 4C18.3512 4 19.9112 5.57 19.9112 7.5C19.9112 9.43 18.4113 10.93 16.5413 11C16.4613 10.99 16.3713 10.99 16.2812 11" stroke="#2D2E33" stroke-width="1.5" stroke-linecap="round" stroke-linejoin="round"/>
<path d="M8.99953 21.81C10.8695 21.84 12.7495 21.38 14.1695 20.43C16.5895 18.81 16.5895 16.17 14.1695 14.56C12.7595 13.62 10.8695 13.16 8.99953 13.19C7.99953 13.21 7.00953 13.36 6.09953 13.65C5.71953 13.77 5.35953 13.91 5.01953 14.08" stroke="#2D2E33" stroke-width="1.5" stroke-linecap="round" stroke-linejoin="round"/>
<path d="M18.3398 20C19.0598 19.85 19.7398 19.56 20.2998 19.13C21.8598 17.96 21.8598 16.03 20.2998 14.86C19.7498 14.44 19.0798 14.16 18.3698 14" stroke="#2D2E33" stroke-width="1.5" stroke-linecap="round" stroke-linejoin="round"/>
</g>
</g>
<defs>
<clipPath id="clip0_2725_18569">
<rect width="24" height="24" fill="white"/>
</clipPath>
</defs>
</svg>
