<svg width="24" height="24" viewBox="0 0 24 24" fill="none" xmlns="http://www.w3.org/2000/svg">
<path d="M9.10795 5.08039C9.97795 4.82039 10.9379 4.65039 11.9979 4.65039C16.788 4.65039 20.668 8.53039 20.668 13.3204C20.668 18.1204 16.788 22.0004 11.9979 22.0004C7.20795 22.0004 3.32795 18.1204 3.32795 13.3304C3.32795 11.5504 3.86795 9.89039 4.78795 8.51039" stroke="#2D2E33" stroke-width="1.5" stroke-linecap="round" stroke-linejoin="round"/>
<path d="M7.87172 5.32L10.7617 2" stroke="#2D2E33" stroke-width="1.5" stroke-linecap="round" stroke-linejoin="round"/>
<path d="M7.86828 5.32031L11.2383 7.78031" stroke="#2D2E33" stroke-width="1.5" stroke-linecap="round" stroke-linejoin="round"/>
<path d="M14.4577 16C14.3644 16 14.2712 15.9804 14.1851 15.928L11.9613 14.7176C11.4089 14.4166 11 13.7557 11 13.1734V10.4907C11 10.2225 11.2439 10 11.538 10C11.8321 10 12.076 10.2225 12.076 10.4907V13.1734C12.076 13.409 12.2913 13.7557 12.5136 13.8735L14.7375 15.084C14.9957 15.2214 15.0746 15.5224 14.924 15.7579C14.8164 15.9149 14.637 16 14.4577 16Z" fill="#2D2E33"/>
</svg>
