<svg width="24" height="24" viewBox="0 0 24 24" fill="none" xmlns="http://www.w3.org/2000/svg">
<g clip-path="url(#clip0_2725_18614)">
<mask id="mask0_2725_18614" style="mask-type:luminance" maskUnits="userSpaceOnUse" x="0" y="0" width="24" height="24">
<path d="M24 0H0V24H24V0Z" fill="white"/>
</mask>
<g mask="url(#mask0_2725_18614)">
<path d="M21.9291 6.76099L18.5591 20.291C18.3191 21.301 17.4191 22.001 16.3791 22.001H3.23916C1.72916 22.001 0.64917 20.5209 1.09917 19.0709L5.30916 5.55103C5.59916 4.61103 6.46918 3.96094 7.44918 3.96094H19.7491C20.6991 3.96094 21.4891 4.54094 21.8191 5.34094C22.0091 5.77094 22.0491 6.26099 21.9291 6.76099Z" stroke="#2D2E33" stroke-width="1.5" stroke-miterlimit="10"/>
<path d="M16 22H20.78C22.07 22 23.08 20.91 22.99 19.62L22 6" stroke="#2D2E33" stroke-width="1.5" stroke-miterlimit="10" stroke-linecap="round" stroke-linejoin="round"/>
<path d="M9.67969 6.38049L10.7197 2.06055" stroke="#2D2E33" stroke-width="1.5" stroke-miterlimit="10" stroke-linecap="round" stroke-linejoin="round"/>
<path d="M16.3789 6.39075L17.3189 2.05078" stroke="#2D2E33" stroke-width="1.5" stroke-miterlimit="10" stroke-linecap="round" stroke-linejoin="round"/>
<path d="M7.69922 12H15.6993" stroke="#2D2E33" stroke-width="1.5" stroke-miterlimit="10" stroke-linecap="round" stroke-linejoin="round"/>
<path d="M6.69922 16H14.6993" stroke="#2D2E33" stroke-width="1.5" stroke-miterlimit="10" stroke-linecap="round" stroke-linejoin="round"/>
</g>
</g>
<defs>
<clipPath id="clip0_2725_18614">
<rect width="24" height="24" fill="white"/>
</clipPath>
</defs>
</svg>
