<svg width="68" height="38" viewBox="0 0 68 38" fill="none" xmlns="http://www.w3.org/2000/svg">
<path d="M8 16H0V20H8V16Z" fill="#3E8258"/>
<path d="M10 1H66C66.5523 1 67 1.44772 67 2V24C67 24.5523 66.5523 25 66 25H10C9.44771 25 9 24.5523 9 24V2C9 1.44772 9.44772 1 10 1Z" fill="#3E8258" stroke="#FFD700" stroke-width="2"/>
<path d="M22 4H12V12H22V4Z" fill="#78A78A"/>
<path d="M36 4H26V12H36V4Z" fill="#78A78A"/>
<path d="M50 4H40V12H50V4Z" fill="#78A78A"/>
<path d="M64 4H54V12H64V4Z" fill="#78A78A"/>
<path d="M24 38C27.3137 38 30 35.3137 30 32C30 28.6863 27.3137 26 24 26C20.6863 26 18 28.6863 18 32C18 35.3137 20.6863 38 24 38Z" fill="#3E8258"/>
<path d="M52 38C55.3137 38 58 35.3137 58 32C58 28.6863 55.3137 26 52 26C48.6863 26 46 28.6863 46 32C46 35.3137 48.6863 38 52 38Z" fill="#3E8258"/>
</svg>
