<svg width="24" height="24" viewBox="0 0 24 24" fill="none" xmlns="http://www.w3.org/2000/svg">
<path d="M15.0004 8.6237C14.4193 7.9595 13.6831 7.51022 12.8841 7.3322C12.0851 7.15418 11.2588 7.25534 10.5088 7.62299C9.75886 7.99065 9.11864 8.60843 8.66842 9.39889C8.21821 10.1893 7.97804 11.1173 7.97804 12.0663C7.97804 13.0154 8.21821 13.9433 8.66842 14.7338C9.11864 15.5242 9.75886 16.142 10.5088 16.5096C11.2588 16.8773 12.0851 16.9785 12.8841 16.8004C13.6831 16.6224 14.4193 16.1731 15.0004 15.5089M12.1086 10.6893H6.60039M6.60039 13.4434H12.1086M21.6004 12.0004C21.6004 17.3023 17.3023 21.6004 12.0004 21.6004C6.69846 21.6004 2.40039 17.3023 2.40039 12.0004C2.40039 6.69846 6.69846 2.40039 12.0004 2.40039C17.3023 2.40039 21.6004 6.69846 21.6004 12.0004Z" stroke="black" stroke-width="1.5" stroke-linecap="round" stroke-linejoin="round"/>
</svg>
