<svg width="23" height="26" viewBox="0 0 23 26" fill="none" xmlns="http://www.w3.org/2000/svg">
<path d="M1.5 7.18856V23.1115C1.49953 23.3793 1.55193 23.6446 1.65421 23.8921C1.75649 24.1397 1.90663 24.3646 2.09602 24.554C2.28541 24.7434 2.51032 24.8935 2.75786 24.9958C3.0054 25.0981 3.27069 25.1505 3.53853 25.15H19.4579C19.7259 25.1505 19.9913 25.0981 20.2391 24.9959C20.4868 24.8937 20.712 24.7436 20.9017 24.5542C21.0913 24.3649 21.2418 24.14 21.3445 23.8924C21.4472 23.6449 21.5 23.3795 21.5 23.1115V2.89177C21.5 2.62359 21.4472 2.35804 21.3446 2.11028C21.2419 1.86251 21.0915 1.63739 20.9019 1.44776C20.7122 1.25813 20.4871 1.1077 20.2394 1.00507C19.9916 0.902444 19.726 0.849609 19.4579 0.849609H7.93256M1.5 7.18856L7.93256 0.849609M1.5 7.18856H6.24338C6.69138 7.18856 7.12103 7.0106 7.43781 6.69382C7.75459 6.37704 7.93256 5.94736 7.93256 5.49936L7.93256 0.849609M11.9304 11.4637V17.0283M14.7145 14.2478H9.14632" stroke="#1E1E1E" stroke-width="1.5" stroke-linecap="round" stroke-linejoin="round"/>
</svg>
