<svg width="24" height="24" viewBox="0 0 24 24" fill="none" xmlns="http://www.w3.org/2000/svg">
<g clip-path="url(#clip0_2730_12711)">
<mask id="mask0_2730_12711" style="mask-type:luminance" maskUnits="userSpaceOnUse" x="0" y="0" width="24" height="24">
<path d="M24 0H0V24H24V0Z" fill="white"/>
</mask>
<g mask="url(#mask0_2730_12711)">
<path d="M12 22C6.48 22 2 17.52 2 12C2 6.48 6.48 2 12 2C17.52 2 22 6.48 22 12C22 17.52 17.52 22 12 22Z" stroke="#2D2E33" stroke-width="1.5" stroke-linecap="round" stroke-linejoin="round"/>
<path d="M14.8783 15C14.1683 15.62 13.2483 16 12.2383 16C10.0283 16 8.23828 14.21 8.23828 12C8.23828 9.79 10.0283 8 12.2383 8C13.2483 8 14.1683 8.38 14.8783 9" stroke="#2D2E33" stroke-width="1.5" stroke-linecap="round" stroke-linejoin="round"/>
</g>
</g>
<defs>
<clipPath id="clip0_2730_12711">
<rect width="24" height="24" fill="white"/>
</clipPath>
</defs>
</svg>
