<svg width="24" height="24" viewBox="0 0 24 24" fill="none" xmlns="http://www.w3.org/2000/svg">
<g clip-path="url(#clip0_2730_12767)">
<mask id="mask0_2730_12767" style="mask-type:luminance" maskUnits="userSpaceOnUse" x="0" y="0" width="24" height="24">
<path d="M24 0H0V24H24V0Z" fill="white"/>
</mask>
<g mask="url(#mask0_2730_12767)">
<path d="M12 2V9L14 7" stroke="#2D2E33" stroke-width="1.5" stroke-linecap="round" stroke-linejoin="round"/>
<path d="M12 9L10 7" stroke="#2D2E33" stroke-width="1.5" stroke-linecap="round" stroke-linejoin="round"/>
<path d="M1.98047 13H6.39047C6.77047 13 7.11047 13.21 7.28047 13.55L8.45047 15.89C8.79047 16.57 9.48047 17 10.2405 17H13.7705C14.5305 17 15.2205 16.57 15.5605 15.89L16.7305 13.55C16.9005 13.21 17.2505 13 17.6205 13H21.9805" stroke="#2D2E33" stroke-width="1.5" stroke-linecap="round" stroke-linejoin="round"/>
<path d="M7 4.13086C3.46 4.65086 2 6.73086 2 11.0009V15.0009C2 20.0009 4 22.0009 9 22.0009H15C20 22.0009 22 20.0009 22 15.0009V11.0009C22 6.73086 20.54 4.65086 17 4.13086" stroke="#2D2E33" stroke-width="1.5" stroke-linecap="round" stroke-linejoin="round"/>
</g>
</g>
<defs>
<clipPath id="clip0_2730_12767">
<rect width="24" height="24" fill="white"/>
</clipPath>
</defs>
</svg>
